<svg xmlns="http://www.w3.org/2000/svg" style="display:none">

  <symbol id="icon-home" viewBox="0 0 24 24">
    <path stroke-linecap="round" stroke-linejoin="round" stroke-width="1.5"
      d="M3 9.75L12 3l9 6.75V21a.75.75 0 01-.75.75H15v-6h-6v6H3.75A.75.75 0 013 21V9.75z"/>
  </symbol>

  <symbol id="icon-search" viewBox="0 0 24 24">
    <path stroke-linecap="round" stroke-linejoin="round" stroke-width="1.5"
      d="M21 21l-4.35-4.35m0 0A7.5 7.5 0 1016.65 16.65z"/>
  </symbol>

  <symbol id="icon-heart" viewBox="0 0 24 24">
    <path stroke-linecap="round" stroke-linejoin="round" stroke-width="1.5"
      d="M12 21C12 21 3 13.5 3 8.25a4.875 4.875 0 018.709-3.034A4.875 4.875 0 0121 8.25C21 13.5 12 21 12 21z"/>
  </symbol>

  <symbol id="icon-moon" viewBox="0 0 24 24">
    <path stroke-linecap="round" stroke-linejoin="round" stroke-width="1.5"
      d="M21 12.79A9 9 0 1111.21 3a7 7 0 009.79 9.79z"/>
  </symbol>

  <symbol id="icon-user" viewBox="0 0 24 24">
    <path stroke-linecap="round" stroke-linejoin="round" stroke-width="1.5"
      d="M15.75 6a3.75 3.75 0 11-7.5 0 3.75 3.75 0 017.5 0zM4.5 20.25a9.75 9.75 0 0115 0"/>
  </symbol>

</svg>